<svg width="300" height="400" viewBox="0 0 300 400" fill="none" xmlns="http://www.w3.org/2000/svg">
<g clip-path="url(#clip0_13_2)">
<path d="M7.09095 428.936C5.59605 422.917 5.36419 414.805 6.8843 408.058C7.37478 405.944 7.83252 407.144 8.2493 405.698C8.32286 405.455 8.39437 405.212 8.4647 404.97C9.43866 401.474 10.6478 398.645 12.3977 396.428C13.0365 395.645 13.2153 397.243 13.8542 396.44C17.3454 392.21 20.293 389.154 23.4002 386.393C24.1263 385.757 24.827 385.143 25.4882 384.55C33.9227 377.646 40.0095 375.15 46.5376 370.613C55.1579 364.624 65.2232 364.216 72.7837 363.472C76.5192 363.139 80.035 363.008 83.5633 362.876C88.4352 362.696 94.0283 362.952 99.1505 362.65C101.238 362.523 103.235 362.311 105.044 361.938C105.775 361.784 105.204 360.95 105.333 360.856C107.287 359.393 106.864 361.311 108.3 361.284C110.879 361.216 113.517 360.687 116.226 359.785C119.405 358.733 122.524 357.27 125.309 355.728C127.499 354.501 124.452 353.984 127.154 353.782C127.342 353.765 127.197 354.911 127.861 354.696C129.365 354.211 131.935 352.685 133.046 352.176C135.194 351.201 135.53 351.005 137.492 349.932C138.059 349.623 138.659 349.316 139.281 349.006C141.58 347.858 144.142 346.67 146.274 345.194C146.85 344.791 145.551 344.421 146.417 343.705C147.288 342.99 149.842 341.521 150.807 341.188C151.772 340.859 151.826 341.739 152.07 341.797C154.107 342.295 155.871 338.688 156.202 338.406C160.463 334.905 164.709 332.4 168.864 329.671C170.769 328.419 172.649 327.118 174.476 325.651C178.89 322.113 183.125 317.828 186.889 314.103C189.16 311.865 191.259 309.806 193.241 307.675C195.179 305.588 197 303.437 198.645 300.968C198.993 300.443 197.622 300.396 198.038 299.76C201.18 294.921 203.695 289.957 205.29 284.821C205.919 282.799 206.41 280.709 206.778 278.551C206.905 277.782 207.861 278.851 208.047 278.07C209.337 273.384 209.877 264.593 204.711 262.951C204.682 262.818 204.653 262.685 204.623 262.551C203.925 259.354 202.785 255.678 202.367 252.66C202.073 250.627 203.895 251.905 202.411 249.886C202.073 249.435 201.516 250.504 201.078 249.807C199.232 246.883 197.571 243.464 195.22 240.904C194.741 240.387 194.13 241.037 193.89 240.965C191.936 240.349 191.993 236.925 191.724 236.337C190.318 233.162 188.509 231.058 186.514 228.891C185.902 228.234 185.222 227.616 184.446 226.968C183.779 226.422 183.835 227.961 183.185 227.494C179.807 225.108 175.042 222.869 170.664 220.382C169.682 219.827 171.027 219.325 170.574 219.011C169.325 218.158 168.382 218.438 167.366 218.453C166.774 218.47 166.151 218.391 165.427 217.926C165.015 217.665 165.592 216.981 165.547 216.861C164.841 214.979 162.95 216.463 162.61 216.375C158.252 215.306 156.369 212.257 152.202 211.028C151.703 210.884 152.419 212.301 151.043 211.836C144.536 209.652 137.824 207.182 131.334 204.697C128.759 203.71 126.182 202.816 123.604 202.013C122.225 201.592 123.39 201.005 123.323 200.889C122.156 199.057 120.806 200.951 120.339 200.951C116.622 200.895 113.265 198.834 110.572 201.167C104.496 200.46 98.2661 200.618 91.9974 200.905C83.652 201.241 75.9157 206.998 67.8333 212.437C67.6648 212.554 67.2467 211.544 66.9121 211.782C62.9025 214.673 64.6948 215.226 63.713 218.871C63.5459 219.5 61.8778 219.713 60.7515 219.804C60.2601 219.823 59.8715 219.832 59.7865 219.84C58.7929 219.94 58.2598 218.296 57.9889 218.395C55.7296 219.359 59.698 222.502 57.9111 224.632C57.8474 224.696 57.366 223.813 57.1413 223.94C56.4395 224.336 56.2641 225.154 55.5594 225.543C53.9492 226.433 51.5567 225.507 51.2057 228.527C51.1724 228.912 53.8122 230.11 52.2557 232.206C51.6219 233.032 49.1873 237.003 48.3537 238.046C47.513 239.077 47.1875 237.825 47.1047 237.884C44.2175 240.314 44.4788 238.897 41.9995 239.519C41.4911 239.65 41.2552 239.827 41.201 240.033C40.9848 240.845 43.5046 242.086 43.5443 242.778C43.5909 243.638 41.4482 245.393 40.8402 245.798C40.2286 246.195 40.0865 245.214 39.642 245.623C36.7248 248.409 40.7792 248.077 40.8398 249.47C41.0611 252.701 37.2883 253.391 36.0924 255.842C35.7795 256.493 36.6559 256.176 36.5203 256.795C36.0732 258.892 35.0197 260.078 34.9588 262.282C34.9515 262.634 34.9725 263.009 35.031 263.413C35.0833 263.926 36.6719 266.312 35.1865 267.611C34.9709 267.805 34.2104 267.154 33.9702 268.203C33.5969 269.766 33.4794 272.681 33.9252 274.367C34.2483 275.607 35.398 274.039 35.1699 275.636C35.0778 276.352 34.1472 275.151 34.0463 276.51C33.9242 277.873 34.6349 281.238 35.0089 282.495C35.3625 283.751 36.1463 282.803 36.237 282.889C36.4884 283.129 36.8695 283.755 37.2203 284.367C37.6075 285.042 37.9564 285.699 37.9909 285.809C40.8826 294.297 43.7004 302.654 48.6456 309.876C49.6902 311.368 50.8732 312.776 52.1962 314.066C52.7926 314.645 53.1807 313.521 53.2796 313.602C55.5319 315.291 51.9771 315.665 52.7969 317.774C54.0597 316.027 54.6301 317.15 56.3267 318.282C57.1472 318.819 57.265 317.841 57.3875 317.834C59.26 317.756 59.0459 319.607 59.0646 320.036C59.1132 321.592 60.8106 321.025 60.8882 322.06C60.99 323.101 59.0281 323.233 60.717 324.337C61.5977 324.001 61.4734 321.543 62.8845 322.074C67.4915 323.868 74.8983 328.628 79.5272 331.177C80.0768 331.488 80.5846 331.749 81.0336 331.953C85.0065 333.674 86.4114 333.648 88.8459 334.175C91.718 334.648 92.1038 334 92.6559 333.412C92.961 333.061 93.3348 332.689 94.1766 332.301C96.4243 331.142 96.1951 334.874 96.7718 335.55C97.4066 336.185 97.6313 335.275 98.2768 335.504C98.9413 335.723 97.9764 336.639 99.2819 336.333C100.662 336.042 103.166 333.154 103.08 332.218C102.982 330.251 100.815 329.49 103.757 328.374C103.929 328.307 103.963 329.429 104.596 329.128C107.058 327.923 109.42 326.365 111.735 324.717C114.165 322.984 116.546 321.149 118.968 319.435C119.618 318.976 119.801 320.24 120.187 319.982C124.217 317.261 121.732 317.082 122.307 313.845C123.674 316.19 125.853 316.403 128.527 313.901C130.131 312.396 129.057 311.816 129.517 310.248C129.654 309.777 131.323 309.276 131.146 308.689C130.573 306.764 128.148 306.346 131.377 304.312C131.521 304.224 131.827 305.288 132.275 304.933C135.17 302.639 134.172 301.008 136.811 298.053C138.136 296.565 140.556 294.731 142.778 292.969C144.012 291.991 145.19 291.031 146.096 290.166C148.214 292.272 150.023 289.341 149.366 286.97C150.924 285.346 152.382 283.437 153.732 281.908C154.193 281.377 154.671 282.225 154.797 282.203C156.822 281.753 155.477 279.893 155.565 279.497C155.612 279.321 155.659 279.145 155.705 278.971C156.576 275.705 157.314 272.811 155.89 270.144C155.371 269.181 154.661 268.304 153.719 267.609C153.562 267.492 151.817 268.557 152.255 266.724C152.267 266.584 154.005 267.149 152.62 265.447C151.291 263.759 148.398 260.176 145.032 259.212C144.234 258.969 141.599 259.302 140.891 257.279C140.8 257.007 141.328 256.642 141.239 256.19C141.117 255.593 140.775 255.487 140.406 255.414C139.883 255.311 139.316 255.285 139.307 254.02C139.295 251.871 137.969 249.371 134.478 248.477C134.37 248.447 132.77 249.365 131.907 248.745C130.524 247.751 128.719 246.105 127.24 245.123C126.531 244.653 126.408 245.813 126.275 245.746C121.189 243.098 118.42 239.933 113.086 236.996C112.838 236.869 112.434 236.778 111.96 236.714C110.497 236.478 108.769 237.225 107.035 236.971C104.491 236.75 104.452 230.856 99.5912 235.107C97.9372 236.672 98.9863 242.147 95.7601 243.257C95.3129 243.414 94.7922 243.508 94.1524 243.55C88.8156 249.58 85.7498 256.993 86.5242 264.91C86.5613 265.274 88.3252 266.404 88.307 267.197C88.2746 268.378 87.4639 269.076 87.45 269.935C87.4143 271.963 87.7599 273.854 88.2053 275.7C88.5524 277.083 89.5671 278.12 90.6779 279.095C91.6594 279.896 90.7906 280.36 92.1486 281.252C93.5441 282.103 94.9706 281.526 96.7214 282.842C98.0509 283.832 98.8279 286.591 100.845 287.542C101.647 285.386 103.043 285.902 105.736 286.09C106.254 286.125 105.969 285.201 106.225 285.178C107.273 285.067 107.942 285.96 108.956 285.796C109.202 285.758 109.438 285.009 109.652 284.935C110.134 284.763 110.622 284.803 111.091 284.965C112.022 285.337 112.893 286.285 113.231 286.434C113.957 286.882 114.532 286.607 114.855 286.269C115.2 285.915 115.371 285.504 115.908 285.14C116.15 284.972 116.313 284.92 116.427 284.95C116.489 284.965 116.538 285.003 116.578 285.051C116.752 285.258 116.774 285.677 117.154 285.438C117.243 285.381 117.35 285.289 117.482 285.149C119.833 282.848 121.135 278.295 120.748 274.924C120.635 273.578 119.677 274.608 119.637 274.417C119.532 273.914 119.458 273.409 119.385 272.907C119.127 270.862 118.529 268.717 116.508 268.682C119.93 264.176 115.349 267.571 113.575 264.556C113.424 264.319 114.705 262.049 115.907 262.587C117.126 263.154 117.916 265.075 119.396 266.276C119.751 266.45 123.154 267.791 123.425 268.224C125.628 270.952 121.771 272.217 121.628 272.348C121.57 272.408 121.517 272.469 121.467 272.529C119.894 274.274 122.392 276.716 122.452 277.662C122.963 281.55 120.907 284.552 119.766 287.187C119.751 287.225 119.734 287.266 119.716 287.31C118.8 289.203 120.104 291.839 116.91 293.379C112.687 294.921 110.271 293.444 108.796 292.592C107.163 291.235 105.825 290.129 102.649 291.14C101.563 291.47 101.64 294.381 99.0403 291.27C98.8617 291.071 97.118 288.406 95.2467 289.002C95.0095 289.078 94.7253 289.821 94.4597 289.788C92.6684 289.533 91.8121 288.492 89.7936 287.779C87.7876 286.994 84.9038 286.047 82.5123 282.463C81.575 281.054 81.2061 278.521 81.5389 276.774C81.7566 276.35 81.95 275.95 82.0441 275.743C82.8334 273.88 80.9751 272.217 82.1715 271.055C83.3841 269.943 85.4085 271.808 86.1069 269.133C84.0376 269.109 81.9094 268.949 79.8268 268.835C79.7638 262.478 80.929 256.184 83.3787 249.578C83.6966 248.755 82.319 249.183 82.6567 248.264C84.171 244.359 86.9384 241.425 90.3456 238.106C90.6275 237.835 90.9144 237.558 91.2089 237.277C92.8325 235.569 94.3322 233.188 96.5963 231.384C99.5401 232.392 102.962 228.767 108.887 228.425C110.909 228.42 110.784 229.092 112.19 229.49C113.128 229.789 113.808 230.056 114.326 230.226C115.908 230.75 115.5 229.016 116.377 229.083C120.759 229.548 118.662 233.879 122.093 235.775C122.274 235.873 125.765 235.083 126.14 235.143C128.554 235.481 125.973 236.078 127.026 236.983C128.925 238.632 130.003 240.082 132.795 241.081C133.609 241.368 136.148 241.194 136.794 243.105C136.88 243.357 136.313 243.979 136.427 244.116C138.518 246.524 140.057 244.402 142.001 244.648C143.678 244.86 144.814 247.115 145.209 248.205C145.263 248.374 145.3 248.514 145.32 248.613C145.557 249.749 145.065 249.471 144.618 249.092C144.31 248.834 144.019 248.535 143.965 248.561C142.948 249.061 143.254 249.584 143.92 250.139C144.301 250.46 144.815 250.788 145.255 251.13C144.035 253.402 145.906 254.409 146.486 252.069C146.544 251.81 145.436 251.388 145.255 251.13C147.683 249.707 149.838 250.647 150.861 254.161C151.316 255.83 149.582 256.082 153.04 258.098C154.606 259.09 155.18 257.258 156.83 258.087C159.689 259.546 161.881 263.401 163.064 266.918C163.56 268.262 163.914 269.62 164.214 270.897C164.602 272.775 165.291 270.769 165.56 272.111C166.176 275.809 164.824 278.728 164.096 281.738C164.024 282.02 165.232 281.715 164.875 282.659C164.872 282.667 164.869 282.674 164.866 282.682C161.611 290.247 157.32 292.883 153.441 297.232C152.63 298.087 151.62 299.283 150.567 300.52C149.13 302.211 147.586 304.006 146.377 305.132C142.76 308.514 137.393 311.716 134.594 314.888C132.762 316.958 133.896 317.273 133.511 318.59C132.77 321.142 128.146 322.156 127.497 322.243C127.476 322.247 129.067 320.454 127.779 320.935C126.502 320.638 127.515 322.219 127.497 322.243C127.074 322.315 123.381 325.344 122.785 326.114C122.465 326.538 123.318 327.066 123.139 327.273C121.563 329.08 119.876 330.833 118.062 332.497C114.931 335.346 111.484 337.983 107.14 340.149C107.015 340.198 106.657 339.167 106.374 339.289C102.362 340.953 99.8806 343.38 95.5954 344.849C94.9152 345.077 94.2535 345.248 93.6259 345.368C90.5427 345.987 87.735 345.363 86.0166 343.557C82.967 343.422 79.1635 341.357 77.3558 340.012C76.6555 339.515 76.0842 339.446 75.6025 339.548C74.8981 339.765 74.4185 340.454 74.3142 340.434C69.0689 339.428 66.6844 337.054 61.6922 334.093C59.3111 332.706 54.3668 329.94 51.7158 328.116C49.607 326.708 48.7628 325.336 46.8349 323.947C46.5745 323.756 46.1653 324.652 46.0696 324.61C43.3542 323.514 45.8986 322.808 45.8007 322.139C45.4968 319.683 45.309 318.379 42.7425 316.22C42.4735 315.988 41.5125 315.912 40.4343 315.746C39.1723 315.585 37.7601 315.321 37.2571 314.749C36.0699 313.375 37.4216 313.311 36.2069 311.895C36.1051 311.771 35.5007 312.182 34.9415 311.184C32.3573 306.56 30.2622 301.354 28.1738 296.373C27.8915 295.688 27.1776 297.001 26.7524 296.009C25.7258 293.594 24.7761 290.976 24.0431 288.236C23.3602 285.685 22.875 283.042 22.6851 280.479C22.5974 279.172 23.5305 279.845 23.719 279.529C24.8578 277.644 22.5246 275.49 22.455 275.05C21.4345 269.665 22.1176 264.646 23.3159 259.956C24.2882 256.15 25.5998 252.431 26.8712 248.323C26.9902 247.836 26.6062 243.201 29.1379 242.537C29.3104 242.477 31.8238 241.897 31.3342 239.98C31.3055 239.858 29.9099 240.284 30.8751 238.743C31.4639 237.809 32.0077 236.394 32.85 235.098C33.3594 234.318 33.9911 233.57 34.8327 233.011C35.5167 232.552 38.0896 232.08 37.9253 229.352C37.8917 229.187 36.7603 224.296 39.5335 224.551C39.9911 224.597 42.0135 226.205 42.4471 223.187C42.5339 222.603 41.5069 223.075 42.0075 221.711C42.7866 219.606 45.0442 217.68 45.9472 214.766C46.0872 214.267 46.1501 211.447 48.3772 211.03C48.7211 210.97 48.9915 211.942 49.7018 211.334C50.2055 210.906 50.7067 210.464 51.2122 210.013C53.6188 207.913 55.7907 205.338 58.6212 203.452C59.796 202.672 60.2053 204.185 61.5341 203.504C62.862 202.819 65.3364 201.192 66.1765 199.723C67.0292 198.243 64.254 197.562 66.1034 195.926C72.1228 190.658 81.101 186.181 91.3249 186.168C93.6717 186.195 96.0384 186.221 98.4354 186.215C99.8874 186.215 98.6594 185.435 100.813 185.39C108.604 185.021 123.498 185.618 130.185 189.37C135.433 192.192 128.167 191.278 132.221 192.976C133.084 193.348 134.136 193.194 135.105 192.931C136.227 192.584 137.214 192.054 137.482 192.095C142.173 192.766 144.826 194.906 148.855 195.963C149.687 196.182 149.249 194.909 149.953 195.107C152.367 195.777 154.668 197.117 156.934 197.869C157.952 198.205 158.047 197.383 158.95 197.789C161.111 198.751 162.947 199.815 164.822 201.358C164.992 201.499 163.312 201.913 164.923 202.585C167.222 203.543 169.793 205.2 172.65 206.003C173.047 206.115 173.439 206.204 173.842 206.273C174.822 206.443 175.575 204.764 176.997 206.765C177.306 207.191 175.879 208.962 178.918 208.231C179.397 208.091 184.401 207.552 185.699 210.126C186.037 210.794 186.498 213.086 187.805 213.542C187.99 213.601 187.847 212.361 188.888 212.881C191.656 214.29 194.657 216.499 197.303 219.317C197.914 219.948 198.537 220.583 199.173 221.206C199.871 221.891 199.697 220.118 200.719 221.171C203.533 224.06 206.512 228.32 208.528 231.891C209.271 233.208 207.986 232.813 207.972 232.956C207.692 235.227 209.928 235.002 210.346 235.448C212.876 238.198 213.411 241.146 215.116 244.089C215.585 244.913 216.165 243.895 216.323 244.028C217.919 245.458 215.734 244.859 216.074 246.062C217.007 249.428 218.433 252.984 219.564 256.303C219.979 257.523 220.635 255.813 220.992 256.922C221.098 257.252 221.202 257.585 221.303 257.921C223.256 264.323 224.152 271.579 223.236 278.45C223.048 279.808 222.234 278.899 222.023 279.17C220.561 280.97 222.046 283.95 222.096 284.672C222.281 286.543 221.946 287.684 221.551 288.839C221.284 289.609 220.985 290.39 220.732 291.427C218.349 301.519 211.735 311.117 205.454 318.039C203.742 319.947 202.037 321.714 200.412 323.325C192.614 330.997 185.457 336.156 177.83 341.717C175.746 343.225 173.617 344.753 171.41 346.344C170.754 346.814 172.075 347.29 171.516 347.708C164.251 353.061 156.553 357.338 148.943 362.081C148.315 362.469 149.776 362.883 148.785 363.536C148.479 363.739 148.156 363.944 147.824 364.148C145.939 365.307 143.669 366.456 141.669 367.19C140.524 367.611 141.519 366.028 140.375 366.468C137.719 367.482 134.979 368.793 132.395 370.224C131.292 370.836 133.488 371.018 132.009 371.735C128.898 373.24 125.722 374.685 122.308 375.971C115.604 378.676 107.095 379.882 100.627 379.646C99.6359 379.63 98.6601 379.592 97.6907 379.537C96.9257 379.492 96.1162 377.291 94.573 377.821C94.4942 378.453 94.5462 379.186 94.536 379.856C87.6528 380.452 80.7743 380.63 74.7807 381.138C66.631 381.883 60.8222 382.335 56.8856 385.223C56.4304 385.538 55.9843 385.846 55.5307 386.158C54.9782 386.537 56.6143 386.853 55.5425 387.594C49.6787 391.703 42.6377 396.313 39.0527 398.103C38.9926 398.148 38.9324 398.193 38.8722 398.238C38.232 398.709 37.0177 396.964 35.6673 398.726C35.4117 399.054 33.3586 401.453 33.1867 402.294C33.1664 402.414 34.2291 402.727 33.6064 403.407C30.9633 406.199 29.0803 408.928 28.7466 409.652C28.395 410.693 28.0842 411.886 27.8211 413.142C27.668 413.888 26.6839 413.004 26.5674 413.551C25.7533 417.539 26.9963 422.249 26.9266 426.379C26.9138 429.158 24.9389 428.609 23.6419 430.562C23.4562 430.862 23.9736 432.498 23.0601 432.954C20.7459 434.177 17.715 434.215 15.2753 435.593C15.0121 435.743 15.3338 436.56 15.5347 437.221C15.7506 437.905 15.7688 438.405 14.5869 437.588C14.3793 437.44 13.0142 435.212 12.4023 434.818C11.9551 434.528 11.1819 435.571 10.5094 434.874C9.84214 434.174 10.4346 433.05 9.62342 431.881C8.82171 430.71 7.75216 431.533 7.09095 428.936ZM70.3042 334.281C69.1439 332.598 67.269 335.773 69.4151 335.843C69.5206 335.842 70.3654 334.365 70.3042 334.281ZM84.2659 256.75C86.3373 254.691 84.6046 252.37 82.8808 253.82C81.1698 255.385 83.6381 257.431 84.2659 256.75ZM89.3269 282.127C88.4614 280.713 87.1346 280.66 86.2724 281.224C85.4073 281.752 85.3858 283.418 87.3749 284.267C87.6077 284.368 89.4367 282.298 89.3269 282.127ZM21.6207 423.517C21.5716 423.545 21.7301 424.879 21.7873 424.904C23.0473 425.403 22.7345 422.792 21.6207 423.517ZM112.993 289.171C111.923 288.67 109.219 288.693 110.12 289.855C110.527 290.334 111.653 290.516 112.495 290.276C113.345 290.04 113.708 289.529 112.993 289.171ZM34.3727 255.323C34.4315 255.314 34.8211 254.37 34.5253 254.283C33.5612 254.001 33.3458 255.467 34.3727 255.323ZM104.185 257.114C104.213 257.118 104.242 257.123 104.27 257.127C105.677 257.346 106.936 258.016 107.709 258.81C107.729 258.821 107.786 258.855 107.804 258.869C109.799 261.71 109.568 264.419 105.795 261.602L106.183 261.839C106.087 261.784 105.988 261.727 105.884 261.667C105.554 261.487 105.967 261.328 106.499 261.211L106.212 261.035C107.003 261.115 107.858 261.124 107.307 260.485C107.181 260.336 107.048 260.201 106.915 260.079L107.033 260.152C106.038 259.502 104.9 259.8 103.901 260.041C102.976 260.258 102.068 260.418 100.835 259.777C100.324 259.501 103.702 256.969 104.197 257.109C104.193 257.111 104.189 257.112 104.185 257.114ZM71.3271 329.866C71.317 329.808 70.0816 329.143 70.0316 329.17C68.8228 329.872 71.327 331.223 71.3271 329.866ZM69.9408 209.255C70.0637 209.27 72.5845 207.331 72.6159 207.204C72.7529 204.628 67.5222 208.633 69.9408 209.255ZM146.192 290.18C146.382 288.269 147.469 286.884 149.361 286.974C148.309 288.037 147.285 289.126 146.192 290.18Z" fill="#8800FF"/>
<path d="M0.782726 -22.6891C0.0434686 -20.6579 -0.991642 -18.4021 -2.07198 -16.2036C-2.97266 -14.3612 -3.91771 -12.583 -4.77853 -11.0474C-5.38296 -9.96495 -5.74809 -10.7892 -6.19111 -10.0524C-7.05517 -8.61141 -7.33351 -7.06614 -8.20433 -5.67398C-8.49531 -5.21423 -9.21352 -6.21154 -9.49751 -5.71762C-10.8572 -3.33511 -11.6093 -0.874096 -12.498 1.49863C-12.6221 1.83246 -12.7468 2.15823 -12.8793 2.49216C-15.5003 8.96297 -16.9095 15.482 -17.8536 22.8238C-18.7707 29.7233 -18.966 36.7964 -18.0883 43.5145C-17.9934 44.2342 -17.8786 44.9596 -17.7453 45.6898C-16.9496 50.2496 -15.7054 56.2707 -13.1151 60.8759C-12.8144 61.4119 -12.1448 60.6997 -12.0284 60.7739C-10.2255 61.9317 -12.1357 62.1632 -11.8341 63.3521C-11.383 65.0982 -10.7505 66.8666 -9.99833 68.5999C-8.77837 71.4394 -7.13455 74.0898 -5.3822 76.2923C-4.18681 77.7722 -3.78428 75.1906 -3.53062 77.3149C-3.50917 77.4628 -4.57377 77.626 -4.35435 78.1115C-3.86137 79.2145 -2.35837 80.9006 -1.83889 81.6569C-0.839093 83.1306 -0.640424 83.3477 0.459022 84.6215C1.59398 85.9354 2.76353 87.5823 4.12815 89.0033C4.55592 89.4501 5.00473 89.8697 5.4757 90.2418C5.88909 90.563 6.06528 89.3769 6.77912 89.8136C7.48688 90.2542 9.06556 91.7487 9.49219 92.3968C9.91379 93.0497 9.17896 93.4462 9.1676 93.6676C9.06633 95.5422 12.4242 95.503 12.7107 95.6414C17.2474 98.0852 20.6927 101.079 24.784 103.605C25.3369 103.958 25.9438 104.267 26.6025 104.517C29.8776 105.774 34.1354 105.637 37.912 105.315C42.4309 104.929 46.5254 104.418 50.8348 102.696C51.2869 102.513 50.3404 101.636 50.8813 101.412C51.29 101.24 51.7001 101.064 52.1048 100.886C57.4429 98.5397 62.5896 95.6567 67.9807 92.7093C68.5673 92.3882 68.4616 93.7155 69.0854 93.4415C72.8898 91.7797 79.3031 89.1724 78.4991 84.1307C79.8003 83.2112 81.2773 82.1532 82.8838 81.2389C84.2889 80.4235 85.7685 79.7981 87.1589 79.5072C89.1541 79.1338 87.9491 80.9405 89.8596 79.5461C90.3049 79.2452 89.2808 78.6158 90.0137 78.2262C93.1398 76.5676 97.2568 76.2257 100.916 76.1999C101.666 76.1892 101.591 75.3066 101.831 75.1823C102.887 74.674 104.161 75.2031 105.081 75.9097C105.804 76.5232 106.327 77.2505 106.554 77.4034C110.111 79.8057 112.921 80.5746 116.273 82.28C117.043 82.6801 116.657 81.1696 117.425 81.5235C121.397 83.3826 125.21 85.8251 128.4 88.6537C129.106 89.2858 127.83 89.6136 128.134 89.9549C128.317 90.1589 128.501 90.3118 128.682 90.4254C130.16 91.43 131.752 91.0354 132.862 93.0662C133.11 93.5558 132.233 93.7953 132.212 93.928C131.785 95.8789 134.067 95.8826 134.29 96.2428C136.72 100.289 134.828 103.288 135.587 106.727C135.674 107.146 136.639 106.07 136.815 107.253C137.156 109.536 137.393 112.03 137.755 113.279C139.014 117.689 141.633 121.939 144.514 126.361C145.149 127.338 143.999 127.218 143.968 127.338C143.532 129.258 145.642 128.515 145.949 128.758C148.063 130.488 148.695 133.292 151.056 134.021C151.362 134.109 151.698 134.161 152.068 134.163C156.271 140.865 163.442 144.454 170.816 148.272C174.116 149.987 177.267 150.915 181.402 151.377C181.565 151.395 181.323 152.438 181.65 152.47C181.681 152.473 181.711 152.476 181.741 152.479C184.936 152.505 184.104 150.854 185.433 148.294C185.757 147.638 188.424 149.02 188.664 149.092C189.501 149.401 189.574 151.063 189.818 151.084C191.83 151.19 189.335 146.776 191.357 145.729C191.426 145.703 191.587 146.671 191.803 146.663C192.477 146.639 192.835 146.029 193.509 146.03C195.057 146.037 196.695 147.951 197.836 145.663C197.977 145.368 196.211 143.072 198.091 142.149C198.512 141.944 199.673 141.27 200.8 140.633C201.685 140.134 202.524 139.664 202.956 139.495C203.917 139.12 203.813 140.273 203.895 140.27C206.897 139.832 206.278 140.816 208.456 141.568C210.646 142.289 207.932 138.914 208.133 138.202C208.336 137.492 210.586 137.166 211.198 137.157C211.814 137.151 211.639 137.998 212.124 137.897C215.322 137.193 211.932 135.396 212.308 134.274C213.15 131.632 216.488 133.076 218.342 131.962C218.838 131.663 218.016 131.398 218.361 131.024C219.726 129.545 221.306 129.501 222.385 127.284C222.565 126.922 222.583 124.284 224.4 124.477C224.662 124.505 224.873 125.413 225.61 124.942C226.713 124.24 228.452 122.699 229.179 121.502C229.712 120.622 227.97 120.594 229.11 119.934C229.62 119.634 229.504 120.924 230.41 120.318C230.693 120.124 231.05 119.798 231.419 119.416C232.253 118.569 233.072 117.336 233.407 116.735C233.891 115.868 232.747 115.841 232.732 115.736C232.656 115.143 232.976 113.369 233.018 113.226C235.808 106.069 236.829 97.4133 236.881 88.7184C236.877 88.0276 235.804 88.4273 235.792 88.3213C235.493 85.9229 238.166 87.961 239.202 86.3751C237.062 86.47 237.504 85.5316 237.401 83.8533C237.351 83.0428 236.494 83.4117 236.416 83.3321C236.236 83.1289 236.126 82.9388 236.069 82.7623C235.761 81.8264 237.005 81.3234 237.298 81.1703C238.578 80.495 237.213 79.544 238.06 79.0905C238.9 78.6231 240.019 79.9262 240.1 78.3337C239.359 77.8722 237.317 78.8666 237.045 77.7481C236.808 76.7751 236.58 75.7547 236.405 75.5906C234.608 72.132 231.775 67.3912 230.003 65.3394C227.687 62.6601 226.725 61.9908 225.392 60.3765C222.928 57.493 222.967 59.5188 220.781 58.5486C218.578 57.6079 221.731 55.4977 221.965 54.6771C222.195 53.8579 221.4 54.2516 221.341 53.6563C221.339 53.6411 221.338 53.6264 221.338 53.6122C221.331 53.3307 221.585 53.2265 221.747 53.096C221.799 53.0529 221.841 53.0069 221.862 52.9508C221.899 52.8422 221.852 52.6924 221.623 52.4535C220.884 51.6335 217.728 51.3222 217.061 51.93C215.617 53.1384 215.778 55.2104 213.997 53.6632C213.887 53.5734 214.684 52.8799 214.24 52.5783C210.652 50.2021 206.037 49.3192 201.642 48.2831C201.039 48.1396 201.678 47.1264 201.322 47.0312C197.57 46.0789 198.802 47.9766 196.697 49.8769C197.255 47.2483 196.164 45.5571 193.25 45.5157C192.786 45.5096 192.463 45.5901 192.22 45.7257C191.519 46.1035 191.476 46.8832 190.716 47.5375C190.421 47.7973 189.11 47.1706 188.98 47.7557C188.618 49.6574 190.006 51.314 187.399 51.1891C187.278 51.1861 187.352 50.1455 186.949 50.2059C184.297 50.6988 184.726 52.5593 182.462 54.0746C180.691 55.2577 176.794 56.7994 174.706 58.5309C172.733 56.2792 171.252 58.638 172.035 60.8129C170.758 62.0146 169.581 63.5113 168.267 64.6395C167.816 65.0281 167.399 64.1797 167.28 64.1767C165.41 64.1366 166.472 66.0182 166.302 66.3582C165.8 67.3001 165.232 68.12 164.644 68.8863C163.122 70.8583 161.67 73.1502 162.082 76.1837C162.103 76.3368 164.069 76.9785 162.388 77.6461C162.272 77.6978 161.6 76.2485 161.173 78.0246C160.745 79.7875 159.183 83.1798 159.864 85.9103C159.88 85.978 159.911 86.0576 159.951 86.1474C160.3 86.9195 161.419 88.3234 160.196 89.3727C160.011 89.5309 159.425 89.3223 159.084 89.5519C158.002 90.3168 160.084 90.7801 158.303 91.7C156.524 92.6163 155.21 94.7808 156.682 97.4073C156.726 97.4935 158.434 97.9698 158.503 98.7957C158.607 100.121 158.547 102.053 158.818 103.43C158.947 104.088 159.88 103.473 159.92 103.584C160.862 106.422 161.178 108.778 161.656 111.453C161.874 112.707 162.316 114.039 163.14 115.381C163.614 116.206 166.207 116.945 166.834 118.782C167.627 120.827 162.954 123.957 167.871 125.505C169.978 126.11 174.501 121.182 176.219 125.337C179.699 126.091 182.889 127.263 186.115 128.157C188.815 128.963 191.894 128.266 194.01 126.516C194.261 126.325 194.077 124.358 194.567 124.044C195.32 123.573 196.234 123.912 196.798 123.515C199.152 121.848 200.331 119.382 202.049 117.286C202.697 116.477 203.186 117.282 203.951 116.28C204.708 115.264 204.21 113.957 205.557 112.815C206.572 111.954 209.25 111.985 210.325 110.547C208.325 109.407 208.94 108.391 209.292 106.257C209.356 105.849 208.452 105.887 208.444 105.678C208.413 105.168 208.727 104.824 208.95 104.464C209.089 104.245 209.182 104.005 209.091 103.711C209.035 103.534 208.286 103.297 208.188 103.163C207.751 102.589 207.963 102.207 208.288 101.718C208.617 101.247 209.029 100.671 209.145 100.491C209.991 99.0443 208.742 98.7931 208.73 97.7518C208.664 96.6491 209.892 97.7233 209.563 96.5276C209.526 96.3957 209.484 96.2625 209.441 96.1309C208.658 93.6564 206.267 91.3204 204.203 89.9347C203.33 89.342 203.359 90.6197 203.22 90.5546C201.377 89.661 199.865 87.7764 198.012 89.2646C198.439 86.1517 197.908 86.5362 197.013 87.1212C196.241 87.5776 195.593 88.2472 194.439 87.7928C194.268 87.7169 193.663 85.1607 194.84 84.7792C195.591 84.556 196.626 84.9031 197.643 85.3302C197.653 85.3339 197.681 85.3438 197.691 85.3477C198.122 85.5461 198.586 85.6983 199.11 85.6815C199.425 85.6514 202.079 84.2049 202.41 84.2139C204.847 84.1399 203.267 87.6897 203.235 87.9001C203.089 90.3835 206.262 89.5011 206.922 89.8542C209.319 90.947 210.57 93.0147 211.874 94.7631C212.054 94.9933 212.25 95.2291 212.466 95.4705C213.514 96.6926 215.925 95.9095 216.423 97.6387C217.492 101.951 215.039 104.646 214.031 106.769C213.677 107.49 213.584 108.423 213.93 109.833C214.157 110.804 216.957 111.381 213.738 112.872C213.53 112.982 210.835 113.804 211.29 115.451C211.347 115.66 212.033 116.064 211.986 116.272C211.654 117.654 210.636 118.08 210.059 119.482C209.48 120.885 208.765 122.648 207.431 123.868C206.627 124.614 204.599 124.675 203.99 124.797C202.286 125.12 202.342 127.441 200.787 127.118C199.282 126.731 199.267 124.23 197.09 124.963C198.315 126.63 199.464 128.426 200.599 130.174C196.999 132.916 191.035 135.366 184.811 133.719C184.04 133.505 183.022 133.264 182.071 133.05C181.488 132.921 181.818 134.147 181.185 134.034C178.475 133.532 176.376 132.096 173.507 131.38C171.287 130.826 168.424 130.883 165.928 129.86C165.651 127.044 161.963 125.728 159.79 123.333C159.042 122.512 159.551 122.115 159.17 121.411C157.821 118.697 157.111 121.028 156.302 120.547C153.412 118.482 155.731 116.013 155.818 113.314C155.88 112.896 155.852 112.448 155.688 111.962C155.634 111.822 152.641 110.489 152.418 110.226C150.967 108.672 153.19 109.713 153.096 108.549C152.945 106.426 153.247 104.926 152.127 102.629C151.798 101.972 149.991 100.436 151.056 98.8939C151.196 98.6938 152.035 98.7095 152.069 98.5585C152.632 95.8518 150.042 95.9743 149.078 94.4174C148.116 92.8445 149.95 90.3479 150.494 89.8925C151.881 88.6533 151.04 90.8869 151.18 90.9595C152.748 91.7757 152.482 90.058 152.684 88.7562C155.251 88.6855 155.218 86.938 152.893 87.4089C152.636 87.4679 152.811 88.4994 152.684 88.7562C150.999 87.8917 150.384 86.5732 151.025 85.1876C151.312 84.6179 151.855 84.0389 152.668 83.4664C153.882 82.6189 155.029 83.7011 154.949 80.6882C154.929 79.3085 153.101 79.5821 152.819 78.2688C152.19 75.2294 154.629 71.6409 155.849 68.3731C156.312 67.1584 154.89 67.8999 155.202 67.0282C155.694 65.705 156.556 64.5986 157.483 63.536C158.009 62.9689 158.526 62.3648 158.911 61.6078C158.991 61.449 157.928 61.1633 158.289 60.6808C161.042 57.0065 164.19 54.3723 167.845 50.9947C169.582 49.3543 172.708 46.1203 175.096 44.781C179.143 42.3363 185.359 41.4178 189.677 40.741C191.355 40.4504 191.846 40.0795 192.223 39.6174C192.42 39.3019 192.573 38.9639 192.972 38.6823C194.858 37.3408 198.182 39.8532 198.596 40.2556C198.612 40.265 196.634 40.4249 197.662 40.9862C198.223 42.094 198.571 40.2593 198.596 40.2556C198.882 40.4908 202.816 40.9937 203.645 40.9128C204.094 40.8543 203.953 39.8736 204.187 39.862C209.684 39.616 216.005 40.6337 221.667 44.3068C221.758 44.3803 221.084 45.2332 221.3 45.3916C222.906 46.6013 224.351 47.3022 225.831 47.9362C226.92 48.341 228.047 48.6461 229.195 49.1394C231.677 50.2075 233.066 51.8271 232.914 54.2137C234.498 55.3718 235.908 57.9481 236.636 59.4712C237.363 60.9872 239.069 59.7805 239.201 59.863C243.211 62.5152 244.063 65.3638 246.487 70.2889C246.521 70.3608 246.555 70.4348 246.591 70.5107C248.097 73.5593 248.042 76.7404 248.068 78.4484C248.07 80.3044 248.051 81.7525 248.075 82.8228C248.083 83.1652 248.067 83.4753 248.036 83.7708C247.92 84.9108 247.592 85.7616 247.762 86.983C247.79 87.1927 248.733 87.0446 248.764 87.11C249.769 88.8669 247.55 87.9143 247.123 88.2394C245.573 89.4365 244.742 90.1882 245.337 92.4485C245.473 92.9725 248.684 94.6125 248.838 95.5644C249.03 96.829 247.877 96.2893 248.106 97.6296C248.124 97.7459 248.85 97.7431 248.781 98.5711C248.452 102.4 247.852 106.837 246.875 111.737C246.732 112.409 248.053 111.791 247.852 112.788C246.976 117.491 244.194 123.303 240.512 126.73C240.437 126.802 240.367 126.86 240.302 126.906C239.705 127.272 239.498 126.443 239.206 126.449C237.275 126.494 237.643 129.21 237.466 129.459C233.334 135.363 228.117 137.5 223.213 142.548C222.962 142.822 221.954 146.434 219.74 145.649C219.583 145.605 217.393 144.758 217.244 146.513C217.232 146.624 218.485 146.989 217.263 147.718C216.052 148.439 214.524 150.287 212.282 150.389C211.57 150.425 209.327 149.515 208.588 151.79C208.571 151.849 208.479 152.521 208.244 153.255C207.891 154.451 207.191 155.793 205.898 154.774C205.555 154.505 204.418 152.173 203.256 154.367C203.03 154.791 203.954 154.933 203.205 155.771C202.058 157.058 199.823 157.5 198.519 159.484C198.304 159.828 197.702 162.124 195.943 161.494C195.669 161.395 195.64 160.447 194.98 160.659C191.666 161.595 189.566 163.747 183.142 164.13C182.811 164.136 182.524 164.108 182.289 164.058C181.669 163.668 181.932 162.554 180.849 162.268C179.588 161.964 176.765 161.538 175.173 161.94C173.54 162.343 174.948 164.853 172.441 164.575C169.538 164.198 166.791 163.296 164.353 162.125C159.091 159.557 154.075 156.128 148.863 151.872C147.808 150.984 148.194 152.351 146.599 151.017C144.279 149.107 141.174 145.846 139.218 143.337C136.591 140.101 133.362 136.256 132.016 132.856C130.267 128.324 134.622 132.36 132.946 129.212C132.166 127.722 128.937 127.51 128.615 127.138C125.895 124.146 125.267 120.854 124.159 117.415C123.943 116.724 123.773 116.101 123.612 115.522C123.342 114.532 122.497 115.711 122.29 114.865C121.644 112.094 121.997 110.088 121.709 108.439C121.584 107.719 120.803 107.946 120.784 107.322C120.726 105.848 120.859 104.749 121.308 103.606C121.345 103.491 122.488 103.828 122.297 103.06C122.016 101.868 122.011 100.605 121.292 101.032C121.185 101.097 120.841 101.521 120.654 101.79C120.26 101.888 119.9 101.774 119.67 100.871C119.572 100.486 121.127 98.8671 118.652 99.507C118.223 99.5933 114.513 100.264 114.191 98.1653C114.108 97.6086 114.2 95.5744 113.345 95.422C113.228 95.4087 113.127 96.4802 112.501 96.2418C110.304 95.3909 108.188 94.2166 105.954 93.5902C105.361 93.4285 105.787 94.718 104.928 94.4556C103.362 93.9833 101.66 93.2945 100.106 92.678C99.7055 92.4794 99.3481 92.3075 99.0201 92.1611C98.659 92.0036 98.9896 91.1882 98.9771 91.0941C98.5391 89.5541 98.1408 91.588 98.04 91.711C97.2106 92.4623 96.2912 91.7131 95.2374 92.4319C94.9605 92.6294 95.5761 93.408 95.5524 93.5128C95.3397 94.5433 95.0261 92.7737 94.531 92.8107C93.7384 92.8816 92.915 93.2653 92.1365 93.8204C91.4019 94.3461 90.6335 95.0006 89.8897 95.6577C89.2634 96.2138 90.6939 96.5032 90.1238 96.9933C86.7251 99.9604 82.5849 103.205 78.1835 105.608C77.3524 106.06 77.3317 105.016 77.0588 104.971C75.1859 104.627 74.624 107.279 74.3341 107.685C73.0407 109.526 71.9244 109.335 70.4078 110.433C67.1227 112.803 63.12 115.038 58.815 116.807C53.2652 119.099 47.373 120.481 42.0917 121.052C33.7771 121.87 25.7383 121.199 17.6183 116.683C14.9824 115.129 12.3016 113.507 9.44997 111.734C8.8849 111.381 8.82478 112.707 8.32446 112.41C2.8035 109.056 -2.15874 104.847 -7.03034 100.152C-7.7855 99.4245 -8.5506 98.6847 -9.32306 97.9361C-9.77048 97.4979 -9.93879 98.9018 -10.6876 98.2154C-12.2312 96.8103 -13.9562 94.7484 -15.0272 92.8704C-15.5508 91.956 -13.9551 92.4548 -14.4886 91.5532C-15.7203 89.4556 -17.1781 87.3469 -18.7016 85.3994C-19.3491 84.5718 -19.3847 86.5116 -20.1606 85.3724C-22.0829 82.544 -23.8436 79.644 -25.3854 76.6535C-27.8861 71.7904 -30.1457 66.5618 -31.4086 60.6805C-31.5443 60.041 -29.6283 58.7468 -30.4789 57.6273C-31.1027 57.7373 -31.7957 57.9837 -32.4419 58.1601C-33.8266 54.4827 -34.9258 50.5693 -35.5735 46.4214C-36.8918 37.6986 -36.5223 29.3956 -35.6415 21.165C-35.5288 20.1472 -35.4129 19.1217 -35.2916 18.0862C-35.2288 17.5526 -36.5172 18.3526 -36.3994 17.3092C-35.7352 11.3174 -34.9373 4.82141 -31.9615 -1.05795C-31.6683 -1.63732 -29.7553 -0.737757 -29.5166 -2.58431C-29.4988 -2.72392 -29.3878 -3.29535 -29.274 -3.97153C-29.1172 -4.89782 -28.9552 -5.99004 -29.0658 -6.46451C-29.0984 -6.57878 -30.1916 -6.4266 -29.9218 -7.27777C-28.3276 -12.2041 -26.1643 -16.8917 -23.7396 -21.1533C-23.3461 -21.8391 -22.705 -20.6664 -22.4168 -21.1501C-21.847 -22.1102 -21.3627 -23.132 -20.9096 -24.1729C-19.7096 -26.9353 -18.6529 -29.8297 -16.8749 -32.0365C-15.222 -34.074 -13.9869 -32.4488 -11.8132 -32.9025C-11.5046 -32.9688 -10.8222 -34.336 -9.8537 -33.9721C-7.40611 -33.0738 -5.14318 -31.1884 -2.49826 -30.3087C-1.93502 -30.0923 -1.58364 -32.4372 -0.825282 -30.6085C-0.78029 -30.4671 -1.00987 -28.8322 -0.723712 -28.2936C-0.529266 -27.9116 0.622196 -27.8921 0.788962 -27.2279C0.954896 -26.5629 -0.0880065 -26.4156 0.0110116 -25.4264C0.118234 -24.4373 1.35496 -24.2672 0.782726 -22.6891ZM239.625 66.4743C239.69 68.2663 242.842 66.3565 241.127 65.4886C241.04 65.4496 239.618 66.382 239.625 66.4743ZM187.91 131.23C186.945 130.566 186.192 130.396 185.558 130.53C184.857 130.813 184.436 131.943 184.979 132.856C184.987 132.872 184.995 132.887 185.002 132.902C186.947 134.529 188.762 131.713 187.91 131.23ZM204.989 118.739C202.668 119.708 206.508 123.257 207.195 120.603C207.236 120.449 205.126 118.678 204.989 118.739ZM-13.9582 -27.0554C-13.905 -27.0559 -13.4 -28.0557 -13.431 -28.1031C-14.2454 -29.1352 -15.264 -27.1161 -13.9582 -27.0554ZM211.87 100.461C211.589 100.9 211.676 101.594 211.874 102.142C212.075 102.678 212.44 103.101 212.933 102.604C213.331 102.197 213.305 101.27 213.001 100.701C212.7 100.12 212.216 99.9115 211.87 100.461ZM219.527 133.311C219.476 133.283 218.822 133.753 219.031 133.982C219.699 134.727 220.397 133.79 219.527 133.311ZM185.504 90.2746C186.618 88.9625 188.305 88.3023 189.436 88.4747C191.136 88.8763 191.72 90.0646 190.534 90.8972L190.796 90.7601C190.576 90.9753 190.312 91.1639 189.937 91.4059C189.666 91.5886 189.683 91.0996 189.737 90.5785C189.784 90.0632 189.898 89.4924 189.356 89.6255C187.28 90.3199 188.623 93.1491 186.238 93.9755C185.778 94.151 185.252 90.5107 185.505 90.264C185.505 90.2675 185.504 90.2711 185.504 90.2746ZM236.545 69.7464C236.525 69.7971 237.116 70.727 237.168 70.7245C238.486 70.5768 237.26 68.6433 236.545 69.7464ZM178.63 152.434C178.565 152.359 176.237 152.069 176.154 152.121C174.546 153.894 179.708 154.552 178.63 152.434ZM174.622 58.5011C174.574 60.1436 173.746 61.1629 172.04 60.8101C172.898 60.0324 173.729 59.2302 174.622 58.5011Z" fill="#8800FF"/>
<path d="M191.068 405.827C191.038 404.344 191.525 402.577 192.042 401.277C192.203 400.867 192.588 401.144 192.718 400.871C192.972 400.33 192.856 399.761 193.143 399.242C193.241 399.068 193.864 399.411 193.951 399.226C194.424 398.217 194.432 397.191 194.767 396.151C195.66 393.386 196.457 390.653 197.236 387.91C197.929 385.44 198.704 383.004 199.623 380.58C200.281 378.837 201.613 376.945 202.083 375.095C202.136 374.88 201.541 374.778 201.512 374.72C201.08 373.815 202.096 374.476 202.407 374.142C203.65 372.801 204.487 371.126 205.018 369.564C205.245 368.896 203.885 368.99 204.789 368.663C204.851 368.639 205.327 369.083 205.474 368.942C205.805 368.623 206.084 367.852 206.287 367.581C206.678 367.063 206.724 366.965 207.022 366.44C207.436 365.724 208.193 365.027 208.511 364.202C208.577 364.025 207.899 363.913 207.954 363.603C208 363.357 208.28 362.909 208.522 362.66C208.597 362.579 208.669 362.515 208.731 362.478C209.009 362.309 209.377 362.676 209.502 362.692C210.541 362.853 209.936 361.304 209.989 361.171C210.851 358.902 212.594 357.972 213.812 356.4C214.543 355.463 215.192 354.383 215.887 353.424C216.062 353.181 216.256 352.928 216.441 352.706C217.532 351.398 218.696 350.493 219.677 349.164C219.78 349.025 219.063 348.714 219.188 348.543C220.526 346.722 221.99 345.021 223.791 343.585C223.973 343.441 224.308 344.082 224.52 343.963C225.807 343.227 228.19 342.346 226.454 339.901C227.126 339.244 227.928 338.433 228.905 338.147C229.534 337.962 229.767 338.824 229.943 338.114C229.984 337.955 229.37 337.709 229.468 337.5C229.879 336.621 230.684 335.951 231.019 335.018C231.084 334.829 230.611 334.513 230.566 334.408C230.212 333.532 231.745 333.809 231.925 333.744C232.953 333.363 233.404 332.763 233.885 332.111C234.052 331.886 234.22 331.66 234.413 331.437C234.601 331.22 233.8 330.99 233.961 330.763C234.798 329.603 235.866 328.521 237.121 327.754C237.402 327.584 237.648 328.251 237.806 328.195C238.484 327.952 237.75 326.961 238.412 326.714C238.55 326.662 238.865 327.125 238.924 327.154C239.843 327.612 239.198 326.379 239.258 326.287C239.974 325.14 241.497 325.751 242.362 324.912C242.469 324.809 241.796 324.417 242.128 324.157C244.347 322.414 247.201 321.363 249.798 321.033C250.204 320.979 250.113 321.572 250.16 321.624C250.554 322.071 250.668 321.869 250.712 321.576C250.756 321.329 250.752 321.02 250.805 320.978C251.787 320.262 253.013 321.158 253.547 319.443C256.3 319.3 259.339 319.654 261.708 320.825C263.743 321.767 265.542 323.248 266.59 325.172C266.619 325.224 266.084 325.639 266.143 325.738C266.83 326.947 267.369 326.023 268.96 325.886C269.368 325.863 268.646 327.401 268.587 327.511C268.402 327.944 267.482 328.392 267.465 328.499C267.327 329.342 269.873 327.236 270.392 327.935C270.403 327.959 269.847 328.228 269.84 328.32C269.815 328.607 270.139 328.646 270.088 328.937C269.971 329.618 268.725 330.63 269.892 330.717C270.042 330.73 271.542 329.594 271.865 330.282C271.994 330.55 272.685 331.667 272.749 332.044C272.818 332.42 272.17 332.493 272.16 332.528C271.921 333.754 271.452 333.586 270.626 334.549C269.795 335.498 272.226 334.095 272.593 334.126C272.962 334.159 272.685 335.077 272.552 335.328C272.421 335.58 271.984 335.559 271.933 335.75C271.597 337.001 273.376 335.539 273.921 335.648C275.214 335.92 273.574 337.342 273.669 338.066C273.695 338.262 274.067 337.93 274.175 338.068C274.601 338.624 274.16 339.246 275.003 339.728C275.139 339.803 276.537 339.919 275.833 340.632C275.731 340.734 275.19 340.776 275.189 341.086C275.188 341.196 275.197 341.324 275.217 341.46C275.31 341.961 275.411 342.528 275.606 342.886C275.794 343.237 276.57 342.668 276.38 343.2C276.291 343.427 275.747 343.108 275.615 343.515C275.489 343.916 275.551 344.849 275.561 345.21C275.576 345.561 276.225 345.379 276.268 345.407C276.519 345.59 276.804 346.314 276.797 346.38C276.674 349.558 275.047 352.031 274.817 354.908C274.796 355.136 275.496 355.131 275.5 355.167C275.617 355.984 273.97 355.005 273.262 355.399C274.633 355.619 274.321 355.876 274.351 356.437C274.367 356.71 274.922 356.687 274.97 356.723C275.681 357.28 274.594 357.312 274.368 357.332C273.538 357.41 274.39 357.884 273.835 357.937C273.283 357.989 272.614 357.424 272.507 357.932C272.958 358.186 274.308 358.101 274.424 358.532C274.756 359.759 273.912 361.46 273.314 362.706C273.11 363.15 272.925 363.519 272.812 363.816C272.353 364.993 272.283 365.403 271.848 366.021C271.037 367.112 272.11 367.041 272.134 368.016C272.132 368.993 270.225 367.517 269.72 367.387C269.22 367.245 269.626 367.596 269.316 367.58C269.008 367.559 268.841 367.147 268.602 367.36C268.371 367.568 268.705 368.751 269.078 369.145C269.884 369.968 271.112 370.272 270.239 370.812C270.189 370.841 269.776 370.345 269.61 370.472C268.313 371.485 267.225 372.66 265.832 373.397C265.642 373.496 265.3 372.866 265.185 372.916C263.989 373.414 265.101 373.975 265.407 375.425C264.406 374.009 263.444 373.455 262.734 374.004C262.301 374.335 262.835 374.872 262.865 375.517C262.873 375.712 262.244 375.534 262.395 375.862C262.882 376.939 263.959 377.768 262.833 377.933C262.783 377.938 262.533 377.339 262.387 377.395C261.447 377.741 262.03 378.809 261.219 379.515C260.726 379.942 259.632 380.129 258.775 380.359C258.514 380.434 258.276 380.508 258.08 380.593C257.109 378.915 256.6 379.724 256.915 381.073C256.344 381.323 255.785 381.694 255.152 381.788C254.938 381.819 254.823 381.253 254.773 381.209C254.028 380.507 254.318 381.8 254.214 381.901C253.046 382.942 251.629 382.394 250.487 383.654C250.45 383.697 250.647 385.038 250.054 384.156C250.019 384.093 250.356 383.4 249.688 383.485C248.997 383.575 247.716 383.009 246.815 383.635C246.606 383.791 245.965 384.879 245.535 383.992C245.481 383.872 245.572 383.491 245.501 383.271C245.283 382.568 245.003 383.911 244.802 382.724C244.604 381.536 244.192 380.61 243.211 381.225C243.182 381.243 242.763 382.259 242.496 382.184C242.304 382.13 242.086 382.028 241.865 381.924C241.584 381.796 241.32 381.644 241.086 381.558C240.882 381.481 240.759 382.153 240.718 382.15C239.004 381.815 238.43 380.431 237.747 379.017C237.626 378.772 236.37 378.478 236.75 377.618C237.188 376.709 240.389 375.825 239.208 375.07C238.755 374.798 234.549 375.483 236.307 373.832C235.764 372.976 235.672 372.016 235.545 371.063C235.452 370.231 235.577 369.431 235.384 368.424C235.365 368.341 234.286 367.81 234.359 367.589C234.465 367.273 235.039 367.253 235.138 367.05C235.566 366.205 235.444 365.241 235.861 364.426C236.019 364.118 236.49 364.448 236.679 364.087C236.867 363.726 236.297 363.18 236.847 362.817C237.264 362.545 238.821 362.77 239.208 362.312C238.37 361.942 238.113 361.669 238.014 361.337C237.947 361.137 237.951 360.908 237.938 360.605C237.932 360.454 237.406 360.334 237.381 360.247C237.277 359.874 237.777 359.881 237.668 359.512C237.643 359.422 237.219 359.138 237.177 359.045C236.819 358.218 238.208 358.312 238.427 358.366C239.3 358.502 238.933 357.919 239.388 357.863C239.837 357.819 239.772 358.439 240.167 358.28C240.816 358.025 241.37 357.495 241.885 357.014L241.74 357.12C241.868 357.049 242.003 356.987 242.138 356.937C242.405 356.839 241.985 356.272 242.017 356.243C242.617 355.836 243.416 356.423 243.546 355.018C244.613 358.395 243.901 354.608 244.981 355.155C245.064 355.2 245.414 356.826 245.156 357.112C244.901 357.397 244.391 356.947 244.084 357.387C243.996 357.492 243.844 359.108 243.834 359.21C243.637 360.011 242.933 357.643 242.85 357.524C242.225 356.389 242.098 357.578 242.219 357.982L242.562 357.73C242.577 357.808 242.585 357.867 242.579 357.896C242.375 358.82 241.67 359.027 241.532 359.732C241.444 360.19 242.643 361.29 242.44 361.45C242.109 361.716 241.476 361.552 241.042 361.581C240.62 361.594 240.381 361.85 241.158 362.51C241.374 362.681 242.13 363.001 242.295 363.111C242.358 363.251 242.203 363.388 241.612 363.487C241.507 363.51 240.077 363.597 240.673 364.251C240.748 364.333 241.223 364.539 241.239 364.612C241.336 365.092 240.852 365.167 240.868 365.628C240.884 366.088 240.969 366.641 240.647 366.973C240.453 367.173 239.437 367.129 239.172 367.165C238.409 367.266 239.35 367.963 238.507 367.899C237.653 367.862 236.584 367.05 235.892 367.497C237.178 367.892 238.493 368.314 239.789 368.703C239.502 369.521 239.175 370.086 239.168 370.124C239.205 370.284 239.248 370.45 239.293 370.6C239.346 370.773 240.002 370.418 240.075 370.593C240.382 371.327 240.046 372.067 240.454 372.693C240.773 373.176 241.683 373.459 242.039 373.822C240.723 374.682 241.517 375.175 241.617 375.617C241.655 375.779 241.297 375.98 241.244 376.151C241.066 376.793 242.088 375.863 242.32 375.826C243.258 375.562 240.852 377.506 241.342 377.891C241.392 377.937 242.647 376.848 242.689 376.747C243.16 376.264 242.37 377.223 242.382 377.377C242.394 377.649 242.411 378.089 242.736 377.681C242.761 377.645 242.809 377.542 242.856 377.429C243.172 377.187 243.572 376.904 243.708 377.511C243.735 377.623 243.597 378.148 243.63 378.187C244.219 378.848 244.545 377.17 244.959 376.654C245.358 376.135 245.661 377.349 245.749 377.694C245.949 378.59 245.509 378.051 245.488 378.133C245.2 379.133 245.618 379.003 245.915 379.105C245.86 380.778 246.355 380.695 246.228 379.202C246.215 379.04 245.975 379.186 245.915 379.105C246.293 377.483 246.58 377.287 247.144 378.794C247.42 379.494 247.244 380.36 248.009 379.975C248.353 379.794 248.064 378.671 248.298 378.319C248.796 377.522 249.853 378.367 250.522 377.969C250.752 377.828 250.313 377.31 250.457 377.195C250.833 376.887 251.388 377.18 251.745 376.767C251.777 376.729 251.422 376.163 251.555 376.098C252.525 375.597 253.635 375.5 254.729 374.87C254.868 374.789 255.026 374.666 255.195 374.52C255.699 374.096 256.257 373.533 256.703 373.311C257.755 372.788 259.464 372.78 260.096 372.012C260.503 371.518 259.99 371.077 259.915 370.566C259.754 369.591 261.381 370.256 261.638 370.349C261.648 370.352 261.359 370.805 261.788 370.883C262.372 371.31 261.636 370.354 261.638 370.349C261.801 370.42 262.651 369.844 262.699 369.613C262.727 369.488 262.246 369.085 262.267 369.03C262.787 367.727 263.377 366.762 264.262 365.928C264.284 365.917 264.855 366.322 264.9 366.291C265.553 365.841 265.036 364.997 264.82 364.287C264.605 363.569 264.905 363.278 266.154 363.374C266.172 362.908 266.876 362.459 267.293 362.162C267.713 361.86 266.406 361.466 266.389 361.428C266.319 361.283 266.27 361.15 266.238 361.025C266.056 359.885 266.826 359.309 267.205 358.162C267.411 357.545 267.509 356.249 267.516 355.54C267.519 354.983 267.902 354.727 267.81 354.194C267.798 354.121 267.192 354.059 267.173 354.034C266.583 353.337 267.973 353.912 268.256 353.856C269.284 353.649 269.841 353.499 269.542 352.706C269.473 352.525 267.478 351.634 267.409 351.334C267.326 350.932 268.05 351.215 267.941 350.796C267.932 350.761 267.468 350.68 267.532 350.447C267.821 349.372 268.281 348.24 268.347 347.202C268.358 347.06 267.596 347.158 267.598 346.957C267.609 346.029 267.669 345.135 267.978 344.605C268.057 344.475 268.584 344.509 268.737 344.468C269.657 344.173 268.269 344.156 268.245 344.178C268.099 344.118 268.04 344.151 268.078 344.275C267.514 342.941 267.664 341.49 266.599 340.27C266.521 340.178 264.862 340.076 265.845 339.221C265.911 339.165 266.916 338.285 265.987 338.39C265.93 338.398 265.431 338.882 265.325 338.515C265.217 338.146 264.556 337.82 264.959 337.035C265.088 336.791 266.023 335.823 264.895 335.909C264.811 335.903 262.469 336.473 263.707 335.445C263.911 335.277 265.37 334.421 264.339 334.409C264.142 334.411 263.925 334.77 263.581 334.67C263.056 334.522 263.127 333.821 262.237 333.878C262.078 333.885 260.967 334.311 261.495 333.576C261.577 333.459 262.07 333.175 262.029 333.022C261.833 332.288 261.098 332.03 260.922 331.317C260.854 331.062 261.57 330.485 261.549 330.132C261.532 329.78 261.281 329.257 260.818 329.426C260.365 329.602 259.68 330.905 259.354 330.805C258.673 330.608 258.21 330.253 257.7 329.854C257.051 329.387 256.801 329.06 256.304 328.928C256.169 328.895 256.225 329.421 256.042 329.416C255.532 329.402 254.669 329.772 253.602 329.817C253.067 329.889 252.576 329.881 252.137 329.75C250.738 329.344 251.861 328.184 250.89 328.178C250.409 328.184 250.648 329.917 250.587 330.002C249.945 330.871 249.074 330.471 248.482 331.065C248.365 331.186 248.84 331.703 248.74 331.798C248.409 332.125 247.848 332.117 247.516 332.41C247.37 332.543 247.698 332.951 247.531 333.019C247.136 333.188 246.704 333.24 246.054 333.135C245.993 333.127 245.804 332.444 245.519 332.644C245.065 332.965 244.195 333.088 244.043 333.924C244.001 334.173 244.831 335.028 243.947 334.743C243.763 334.685 242.826 333.59 243.344 334.831C243.424 335.041 244.06 336.797 242.982 336.387C242.699 336.278 241.621 335.722 241.589 336.039C241.588 336.085 242.162 336.403 242.069 336.604C241.824 337.116 241.467 337.549 241.152 338.042C241.024 338.24 240.898 338.45 240.788 338.673C240.686 338.885 241.416 339.04 241.247 339.343C240.777 340.186 239.896 341.004 239.147 341.6C238.871 341.817 238.593 341.287 238.53 341.269C237.52 340.971 238.391 341.983 238.367 342.134C238.198 343.073 237.324 343.174 236.968 343.876C236.868 344.069 237.451 344.345 237.467 344.413C237.619 345.094 236.947 344.136 236.677 344.273C235.915 344.659 235.415 345.361 234.984 346.025C234.828 346.268 235.597 346.471 235.45 346.684C234.589 347.955 233.539 349.154 232.292 350.07C232.056 350.242 231.73 349.754 231.594 349.72C230.643 349.478 231.225 350.702 231.231 350.881C231.258 351.695 230.72 351.577 230.452 352.061C229.141 354.437 226.829 356.815 225.106 358.664C224.727 359.071 224.352 359.462 223.993 359.828C222.205 361.66 220.529 363.202 219.163 365.208C219.062 365.357 219.767 365.656 219.688 365.789C219.08 366.779 218.584 367.415 218.041 368.292C217.545 369.095 217.075 369.892 216.71 370.725C216.641 370.88 217.375 371.016 217.285 371.276C217.104 371.814 216.733 372.406 216.273 372.786C216.049 372.975 215.689 372.365 215.473 372.563C214.972 373.019 214.608 373.611 214.416 374.245C214.335 374.517 215.168 374.465 215.015 374.789C213.991 377.008 213.171 379.195 211.44 381.175C211.322 381.31 209.892 380.948 210.033 381.388C210.406 381.551 210.858 381.711 211.263 381.869C210.451 384.715 209.351 387.425 208.581 390.304C208.417 390.93 208.263 391.549 208.121 392.174C208.086 392.331 208.902 392.215 208.838 392.519C208.461 394.305 208.336 396.063 207.238 397.746C207.131 397.912 205.804 397.568 205.908 398.145C205.928 398.245 205.961 399.087 206.217 399.343C206.256 399.379 206.909 399.347 206.882 399.605C206.709 401.131 206.302 402.667 205.686 404.098C205.586 404.327 204.954 403.97 204.877 404.132C204.332 405.301 204.656 406.688 203.915 407.725C203.42 408.411 202.283 408.01 201.093 408.297C200.924 408.339 200.863 408.785 200.192 408.758C198.5 408.731 196.67 408.343 194.864 408.335C194.67 408.334 194.661 408.562 194.594 408.774C194.527 409.011 194.395 409.178 193.934 408.734C193.87 408.642 193.604 407.943 193.302 407.774C193.092 407.655 192.394 407.778 192.132 407.544C191.872 407.3 192.465 407.131 192.17 406.779C191.874 406.414 191.083 406.472 191.068 405.827ZM269.172 360.56C269.911 360.274 267.597 359.659 268.043 360.262C268.067 360.292 269.135 360.575 269.172 360.56ZM237.294 370.106C236.776 370.306 236.927 370.469 237.289 370.455C237.653 370.449 238.226 370.298 238.62 370.188C239.415 370.034 237.611 370.016 237.294 370.106ZM237.869 365.068C236.842 365.369 239.951 366.733 239.576 365.847C239.555 365.796 237.929 365.052 237.869 365.068ZM200.989 406.339C200.957 406.341 200.88 406.694 200.911 406.703C201.641 406.985 201.792 406.291 200.989 406.339ZM239.684 359.588C239.192 359.462 239.277 360.244 239.883 360.382C240.353 360.51 240.277 359.762 239.684 359.588ZM272.607 338.552C272.638 338.532 272.561 338.279 272.379 338.366C271.793 338.645 272.104 338.899 272.607 338.552ZM248.112 355.948C246.631 356.039 245.226 353.444 246.94 353.481C247.249 353.49 246.435 354.468 246.856 354.656C247.614 355 247.835 353.188 248.684 354.031C248.828 354.185 248.191 355.948 248.11 355.952C248.111 355.951 248.111 355.95 248.112 355.948ZM272.028 360.971C272.061 360.969 272.173 360.627 272.144 360.611C271.45 360.247 271.224 360.937 272.028 360.971ZM265.38 324.96C265.412 324.892 264.758 324.276 264.693 324.311C263.595 325.017 264.818 326.181 265.38 324.96ZM258.041 380.556C258.076 381.423 257.669 381.756 256.917 381.073C257.303 380.92 257.664 380.723 258.041 380.556Z" fill="#8800FF"/>
<path d="M318.387 266.27C316.428 265.662 313.969 264.416 312.145 263.353C311.581 263.024 312.044 262.753 311.65 262.504C310.9 262.026 310.032 261.904 309.303 261.404C309.054 261.233 309.643 260.744 309.375 260.579C307.923 259.685 306.39 259.267 304.857 258.516C304.558 258.37 304.254 258.222 303.945 258.073C298.344 255.368 293.474 252.477 288.565 250.121C286.513 249.14 284.444 248.249 282.25 247.348C280.736 246.725 279.024 245.849 277.295 245.026C276.089 244.454 274.88 243.912 273.699 243.519C273.362 243.407 273.32 244.031 273.239 244.049C271.97 244.304 272.772 243.356 272.21 242.93C269.979 241.24 267.319 239.836 264.914 238.729C263.89 238.257 264.283 239.835 263.627 238.695C263.582 238.617 264.144 238.221 263.912 238.007C263.657 237.774 263.247 237.517 262.843 237.273C262.412 237.014 261.99 236.77 261.768 236.6C260.943 235.959 260.797 235.871 259.984 235.323C258.875 234.566 257.757 233.402 256.526 232.671C256.261 232.516 256.206 233.273 255.748 233.07C255.287 232.867 254.287 232.039 254.036 231.651C253.785 231.264 254.242 230.98 254.252 230.842C254.358 229.69 252.363 229.822 252.191 229.721C250.53 228.764 249.251 227.551 248.065 226.288C247.055 225.212 246.096 224.084 245.015 222.97C243.223 221.139 241.235 219.111 239.87 217.044C238.882 215.554 238.169 214.111 237.466 212.675C237.01 211.742 236.558 210.81 236.045 209.853C235.908 209.595 235.389 210.242 235.221 209.927C233.435 206.573 232.026 203.116 231.142 199.476C231.054 199.111 231.845 199.315 231.796 198.937C231.464 196.619 231.529 192.88 228.375 192.496C228.372 192.486 228.37 192.475 228.367 192.464C227.984 190.956 227.553 189.111 227.747 187.626C227.873 186.66 228.795 187.314 228.218 186.337C228.089 186.114 227.558 186.586 227.411 186.238C226.795 184.77 226.617 183.053 226.001 181.573C225.874 181.271 225.334 181.462 225.217 181.391C224.259 180.785 225.396 179.276 225.456 178.999C225.873 176.802 225.42 175.331 225.31 173.355C225.288 172.898 224.56 173.484 224.511 173.043C224.273 170.739 224.356 168.288 224.898 166.021C225.02 165.521 225.623 166.045 225.715 165.813C225.932 165.257 225.69 164.898 225.482 164.523C225.31 164.179 225.167 163.809 225.38 163.322C225.477 163.099 225.998 163.335 226.065 163.304C227.123 162.866 225.938 162.035 225.955 161.85C226.129 159.644 227.954 158.917 228.564 157.121C228.64 156.903 227.78 157.073 228.036 156.472C229.777 152.449 232.453 148.896 235.27 145.929C235.707 145.471 235.872 146.143 235.948 146.149C237.148 146.222 236.291 145.09 236.372 144.892C236.7 144.132 237.315 143.624 237.774 143.071C238.249 142.499 238.564 141.906 238.287 140.951C242.699 136.303 246.596 131.459 251.534 127.774C252.034 127.397 252.544 127.037 253.068 126.693C253.141 126.643 253.51 127.224 253.653 127.122C255.366 125.922 254.35 125.47 254.404 123.608C254.42 123.138 256.242 123.487 256.387 123.501C256.918 123.555 257.381 124.504 257.517 124.481C258.62 124.266 256.174 122.052 257.031 121.174C257.062 121.15 257.383 121.69 257.499 121.657C257.859 121.559 257.907 121.163 258.274 121.081C259.113 120.9 260.474 121.8 260.53 120.351C260.53 120.167 259.012 119.07 259.773 118.334C259.921 118.191 260.278 117.778 260.645 117.347C261.038 116.885 261.454 116.395 261.676 116.213C262.104 115.864 262.35 116.527 262.394 116.513C263.928 115.842 263.846 116.482 265.237 116.611C266.626 116.732 264.273 115.192 264.207 114.762C264.144 114.331 265.327 113.862 265.672 113.785C266.017 113.71 266.12 114.208 266.366 114.097C267.998 113.348 265.679 112.701 265.641 112.016C265.552 110.394 267.79 110.892 268.643 110.126C268.874 109.919 268.347 109.825 268.479 109.583C269.013 108.624 269.92 108.52 270.228 107.187C270.274 106.981 269.966 105.534 270.925 105.481C270.966 105.481 271.01 105.483 271.057 105.488C271.214 105.504 271.46 106.025 271.827 105.755C272.378 105.357 273.181 104.45 273.421 103.757C273.597 103.249 272.559 103.287 273.127 102.886C273.38 102.704 273.521 103.426 273.963 103.053C274.412 102.683 275.074 101.427 275.285 100.933C275.503 100.442 274.789 100.429 274.77 100.371C274.66 100.031 274.771 99.0031 274.8 98.9234C276.388 94.8996 278.11 90.8547 277.838 86.3413C277.816 85.9905 277.13 86.2143 277.119 86.1607C276.843 84.9728 278.654 85.9259 279.261 85.0672C277.874 85.1989 278.127 84.6983 277.951 83.8514C277.864 83.4441 277.334 83.6854 277.278 83.6496C276.444 83.0812 277.473 82.6221 277.682 82.4983C277.683 82.498 277.684 82.4977 277.684 82.4974C278.452 82.0596 277.486 81.6936 277.989 81.3822C278.487 81.0597 279.324 81.6291 279.233 80.7967C278.716 80.6194 277.488 81.3478 277.216 80.7631C276.178 78.6205 276.494 73.9358 276.542 71.9586C276.538 70.6804 276.519 69.9601 276.546 69.3008C276.563 68.9417 276.595 68.6064 276.665 68.2044C277.039 66.1624 276.06 66.885 275.681 65.5719C275.318 64.2495 277.644 65.0336 278.163 64.8829C278.682 64.7434 278.173 64.5111 278.468 64.3138C278.763 64.1182 279.073 64.6116 279.216 64.1114C279.356 63.6168 278.584 62.1389 278.076 61.8996C276.995 61.4004 275.748 61.9158 276.31 60.5787C276.343 60.5027 276.934 60.8261 277.03 60.5317C277.754 58.1807 278.204 55.7489 278.65 53.4619C278.703 53.1496 279.384 53.4087 279.437 53.2303C279.438 53.2281 279.439 53.2258 279.439 53.2234C279.769 51.1717 278.628 51.9482 277.217 51.1431C278.949 51.1171 279.951 50.3429 279.572 48.7747C279.334 47.8542 278.646 48.2161 277.968 47.8142C277.765 47.695 278.054 46.9267 277.678 46.9306C276.455 46.9611 275.448 47.9423 275.409 46.3921C275.408 46.3218 276.076 46.2857 276.028 46.0596C275.705 44.5907 274.517 44.9063 273.721 43.5359C273.476 43.1192 273.277 42.5132 273.085 41.8474C272.779 40.7865 272.504 39.5877 272.152 38.7657C273.885 37.8906 272.834 36.8628 271.39 37.0151C270.985 36.159 270.422 35.3071 270.127 34.4204C270.025 34.1162 270.615 34.0157 270.648 33.9511C271.172 32.9505 269.83 33.2353 269.686 33.0903C268.138 31.4296 268.033 29.3751 266.08 28.0999C266.01 28.0539 264.808 28.6743 265.334 27.6721C265.372 27.6061 266.267 27.8653 265.765 26.996C265.271 26.1355 264.835 24.1584 263.548 23.3263C263.236 23.1195 261.843 22.9924 262.185 21.879C262.236 21.7352 262.625 21.6375 262.742 21.4074C262.891 21.1033 262.767 21.0003 262.617 20.8986C262.41 20.7747 262.15 20.6906 262.631 20.1227C263.449 19.1732 263.696 17.7571 262.255 16.9364C262.21 16.9076 261.117 17.1901 260.895 16.8155C260.542 16.211 260.158 15.2598 259.712 14.6708C259.499 14.3898 259.096 14.972 259.049 14.9303C257.379 13.3372 256.757 11.7407 255.162 9.84837C255.132 9.81402 255.102 9.77956 255.072 9.74497C254.764 9.38604 253.171 9.17295 252.975 8.03923C252.755 6.79417 255.69 4.98186 253.44 4.06832C252.538 3.70219 248.924 6.10685 249.102 3.38832C246.339 1.67207 244.949 -1.09162 242.335 -2.9695C242.254 -3.02875 241.664 -2.85373 241.236 -2.8383C241.048 -2.82666 240.894 -2.84203 240.832 -2.9225C240.539 -3.30363 240.755 -3.87203 240.536 -4.1574C239.613 -5.36606 238.272 -5.93896 237.221 -6.92263C236.817 -7.29473 237.325 -7.60627 236.835 -8.04905C236.341 -8.49112 235.539 -8.18407 235.06 -9.01322C234.7 -9.64039 235.084 -11.257 234.469 -11.9431C233.54 -10.7708 233.068 -11.1668 231.958 -11.5019C231.744 -11.5658 231.613 -11.0141 231.496 -11.0228C231.013 -11.0484 230.971 -11.6169 230.489 -11.611C230.372 -11.6103 230.064 -11.203 229.952 -11.1792C229.143 -10.9973 228.887 -12.0574 228.811 -12.5683C228.801 -12.6655 228.794 -12.7426 228.791 -12.7857C228.686 -13.7948 228.037 -13.4104 227.745 -13.9235C227.427 -14.4431 228.313 -14.3797 227.842 -14.8461C226.841 -15.8223 225.213 -16.3885 224.068 -16.9635C223.608 -17.1925 223.624 -16.4278 223.552 -16.4462C223.116 -16.5796 222.752 -16.8627 222.406 -17.0936C221.934 -17.453 221.442 -17.6792 220.717 -17.1934C221.638 -19.6891 220.781 -18.5276 219.904 -18.3222C219.597 -18.2503 219.284 -18.2968 219.033 -18.6616C218.959 -18.7732 219.681 -20.2768 220.215 -20.2381C220.448 -20.221 220.648 -20.0538 220.857 -19.8705C221.132 -19.6318 221.427 -19.3637 221.862 -19.3426C222.037 -19.3392 223.664 -20.1403 223.826 -20.1441C224.088 -20.1577 224.235 -20.0734 224.303 -19.9319L224.123 -20.0443C224.301 -19.5979 223.655 -18.1765 223.634 -18.0647C223.428 -16.5029 225.136 -17.5617 225.425 -17.562C226.809 -17.5247 227.747 -16.7435 229.009 -16.4739C229.832 -16.2876 230.775 -17.6126 231.371 -17.1546C231.562 -17.0039 231.728 -16.8398 231.873 -16.6685C232.774 -15.414 232.332 -13.6695 234.674 -14.1321C235.231 -14.2382 235.992 -15.8908 236.256 -13.9418C236.274 -13.8183 236.314 -12.1831 237.28 -12.4554C237.402 -12.4899 237.717 -12.9004 237.823 -12.8732C238.525 -12.683 238.624 -12.0805 239.324 -11.7695C240.025 -11.4574 240.914 -11.1036 241.464 -10.3909C241.796 -9.96339 241.66 -8.78505 241.68 -8.44299C241.734 -7.46906 243.07 -7.71748 242.803 -6.80723C242.512 -5.91328 241.035 -5.64843 241.403 -4.47485C242.42 -5.35528 243.508 -6.21138 244.564 -7.06006C244.812 -6.77633 245.054 -6.47641 245.288 -6.16437C246.294 -4.7545 247.35 -3.21306 248.783 -1.93305C248.989 -1.75159 249.28 -2.47004 249.512 -2.2908C250.489 -1.53586 250.967 -0.418747 252.106 0.304663C252.99 0.862264 254.358 1.0293 255.328 1.61288C254.836 3.22117 256.442 3.91894 257.281 4.86365C257.574 5.19333 257.277 5.47893 257.416 5.78743C257.949 6.94994 258.467 5.5803 258.854 5.64692C258.929 5.66057 258.997 5.67849 259.057 5.70034C260.424 6.25951 258.581 8.37215 259.713 9.49455C259.771 9.54872 261.739 9.30351 261.923 9.36806C263.074 9.70433 261.593 9.86038 261.891 10.4112C262.426 11.4226 262.573 12.2541 263.718 13.0416C264.049 13.2639 265.43 13.4739 265.165 14.5408C265.13 14.6797 264.642 14.9225 264.657 15.0058C264.946 16.4806 266.419 15.6497 267.343 16.1165C268.143 16.5258 267.918 17.889 267.7 18.481C267.63 18.497 267.578 18.5285 267.539 18.5532C267.323 18.7127 267.22 18.813 267.147 18.8209C267.079 18.8367 267.051 18.774 267.077 18.777C267.021 18.5925 266.986 18.3899 266.949 18.3917C266.255 18.4323 266.22 18.7425 266.338 19.1287C266.316 19.1676 266.416 19.3437 266.482 19.5184C265.068 20.4183 265.609 21.0971 266.707 20.0456C266.824 19.9285 266.464 19.6406 266.482 19.5184C268.109 19.0522 268.75 19.662 268.058 21.4023C267.728 22.2083 266.771 22.274 267.86 23.3804C268.358 23.8906 269.172 23.031 269.773 23.3811C271.144 24.1762 271.235 26.3198 272.142 27.4753C272.473 27.8955 272.738 27.1239 272.984 27.4025C273.635 28.1401 273.676 29.1251 274.376 29.8371C274.441 29.9025 274.899 29.3796 275.062 29.6402C276.296 31.5957 276.914 33.5629 278.033 35.7015C278.424 36.4476 279.196 37.5306 279.771 38.5095C279.997 38.8964 280.192 39.2631 280.323 39.5821C281.162 41.5853 281.349 44.4533 282.163 46.2676C282.694 47.4727 283.235 47.0213 283.828 47.4778C284.998 48.3975 283.811 50.843 283.577 51.1061C283.576 51.1117 283.252 49.9401 283.008 50.6233C282.36 51.0772 283.571 51.0897 283.577 51.1061C283.494 51.2344 283.507 52.2708 283.501 53.108C283.504 53.6697 283.496 54.0917 283.536 54.2709C283.594 54.5362 284.224 54.4157 284.242 54.5542C284.599 57.7658 284.343 60.1578 283.823 62.631C283.806 62.6734 283.117 62.5386 283.086 62.6399C282.637 64.0549 283.422 65.0406 283.867 66.2151C284.315 67.3894 284.129 68.2567 282.925 68.933C282.944 69.0482 282.952 69.1703 282.95 69.2974C282.936 70.0921 282.538 71.0921 282.299 71.7284C282.023 72.4635 283.392 72.4584 283.423 72.5158C284.441 74.3529 283.833 75.5357 284.019 77.8068C284.096 78.767 284.498 80.6843 284.705 82.1301C284.728 82.2777 284.751 82.4168 284.772 82.545C284.936 83.5292 284.633 84.1358 284.845 85.0525C284.873 85.1773 285.478 85.0472 285.501 85.0853C286.228 86.1286 284.745 85.6236 284.481 85.8348C283.51 86.5984 282.998 87.0286 283.384 88.35C283.473 88.6458 285.542 89.6864 285.611 90.2878C285.697 91.0562 284.966 90.6944 285.063 91.4961C285.07 91.5649 285.542 91.6055 285.459 92.0921C285.08 94.3547 284.303 96.7819 283.608 99.1285C283.51 99.4503 284.356 99.2638 284.222 99.7396C283.593 101.973 282.507 104.372 281.062 106.186C280.705 106.629 280.428 106.06 280.233 106.087C279.063 106.236 279.666 107.82 279.582 107.99C279.049 109.155 278.354 110.123 277.593 110.974C276.236 112.457 274.687 113.655 273.591 115.752C273.506 115.918 273.817 117.924 272.432 117.67C272.339 117.655 270.935 117.376 271.295 118.356C271.318 118.417 272.084 118.502 271.612 119.011C271.141 119.521 270.81 120.686 269.631 121.021C269.258 121.128 267.802 120.915 268.007 122.295C268.014 122.342 268.227 122.98 268.246 123.569C268.257 124.202 268.049 124.775 267.24 124.458C266.98 124.355 265.771 123.187 265.639 124.638C265.614 124.918 266.169 124.864 265.944 125.465C265.595 126.39 264.453 126.939 264.252 128.221C264.219 128.447 264.484 129.814 263.432 129.641C263.267 129.614 262.996 129.087 262.722 129.274C261.425 130.153 260.585 131.526 259.249 132.327C258.775 132.614 258.319 131.778 257.753 132.006C257.43 132.137 256.982 132.399 256.633 132.738C256.367 132.997 256.156 133.296 256.102 133.607C255.983 134.323 257.474 134.876 256.931 135.595C254.578 138.709 251.373 140.764 248.831 143.409C248.457 143.8 249.14 143.812 248.623 144.411C247.633 145.562 246.394 147.235 245.286 148.679C244.114 150.208 242.917 151.58 241.778 152.28C239.87 153.461 240.812 150.94 239.608 152.037C239.026 152.573 239.967 154.199 239.915 154.373C239.394 156.128 238.129 156.735 237.577 158.151C237.465 158.443 238.208 158.52 238.11 158.761C237.783 159.578 237.099 160.225 236.815 160.956C236.69 161.284 237.192 161.445 237.029 161.708C236.646 162.345 236.219 162.831 235.543 163.311C235.48 163.358 234.998 162.746 234.81 163.24C234.54 163.959 233.923 164.774 234.135 165.617C234.152 165.714 234.176 165.812 234.207 165.91C234.318 166.263 235.501 166.384 234.618 167.006C234.436 167.139 233.015 166.839 234.195 167.766C234.386 167.939 235.995 169.355 234.925 170.027C234.641 170.204 233.47 170.69 233.665 171.112C233.695 171.167 234.331 170.93 234.402 171.266C234.644 172.458 234.663 173.728 234.997 174.956C235.087 175.283 235.693 174.72 235.808 175.201C236.123 176.524 236.217 178.229 236.273 179.606C236.292 180.113 235.687 179.879 235.635 179.926C234.794 180.695 236.157 180.786 236.271 180.956C236.974 182.047 236.593 183.096 237.039 184.16C237.161 184.452 237.71 184.077 237.779 184.123C238.471 184.599 237.261 184.429 237.249 184.858C237.212 186.061 237.63 187.294 238.066 188.392C238.227 188.793 238.77 188.11 238.906 188.471C238.964 188.622 239.022 188.774 239.08 188.928C239.844 190.955 240.528 193.098 240.954 195.216C241.039 195.646 240.42 195.597 240.333 195.727C239.729 196.637 241.204 197.036 241.389 197.183C242.239 197.862 241.924 198.389 242.337 199.125C243.814 201.734 245.21 204.912 246.539 207.573C247.031 208.562 247.512 209.479 247.98 210.298C249.959 213.747 251.723 216.26 254.688 218.965C255.1 219.34 255.528 219.711 255.978 220.08C256.211 220.273 256.469 219.512 256.676 219.669C259.311 221.713 261.741 223.981 264.587 225.699C264.819 225.84 264.901 225.039 265.285 225.244C266.074 225.659 266.978 226.304 267.605 226.967C267.912 227.29 267.097 227.491 267.416 227.807C267.658 228.047 267.919 228.273 268.193 228.483C268.762 228.918 269.394 229.288 270.05 229.573C270.465 229.75 270.234 228.791 270.741 229.068C274.219 230.935 277.797 232.454 281.295 234.839C281.3 234.842 281.304 234.846 281.308 234.85C281.525 235.06 281.248 236.459 281.912 236.419C282.101 236.056 282.27 235.608 282.444 235.209C285.792 236.338 289.551 237.776 293.134 239.488C295.637 240.672 297.924 241.886 300.226 243.005C300.465 243.121 300.382 242.223 300.845 242.444C303.524 243.716 306.144 244.708 308.377 246.415C308.408 246.439 308.422 246.483 308.426 246.542C308.474 246.913 308.118 247.83 308.899 247.944C309.052 247.963 310.388 248.289 310.826 248.142C310.887 248.118 310.887 247.433 311.304 247.577C313.704 248.413 316.13 249.531 318.359 250.853C318.72 251.068 318.057 251.533 318.309 251.691C320.1 252.805 322.392 253.192 324.008 254.555C325.079 255.468 324.162 256.352 324.347 257.694C324.37 257.881 325.12 258.242 324.881 258.871C324.291 260.46 323.183 261.993 322.597 263.705C322.465 264.071 323.637 264.136 322.66 264.727C322.588 264.764 321.757 264.735 321.458 264.951C321.249 265.1 321.19 265.821 320.831 265.971C320.475 266.122 320.441 265.481 319.902 265.608C319.36 265.74 319.232 266.53 318.387 266.27ZM281.178 75.1464C280.617 75.9267 283.003 75.7194 282.342 75.0498C282.307 75.018 281.205 75.1068 281.178 75.1464ZM245.883 -2.15974C245.775 -0.766464 247.313 -1.44445 247.429 -2.46873C247.561 -3.48057 245.923 -2.5763 245.883 -2.15974ZM238.338 -8.72714C238.661 -7.36677 241.027 -9.80697 239.616 -10.1023C239.535 -10.1198 238.318 -8.80688 238.338 -8.72714ZM321.207 256.707C321.202 256.739 321.737 256.998 321.76 256.973C322.346 256.396 321.28 255.88 321.207 256.707ZM230.031 -14.0406C230.032 -13.4663 231.146 -13.2985 231.143 -14.0123C231.14 -14.4565 230.476 -14.6571 230.176 -14.3958C230.133 -14.3605 230.098 -14.3153 230.074 -14.26C230.046 -14.199 230.03 -14.1261 230.031 -14.0406ZM269.584 110.819C269.549 110.805 269.266 111.118 269.431 111.235C269.961 111.61 270.173 111.037 269.584 110.819ZM215.521 -22.1941C217.599 -20.8608 217.438 -17.6978 215.317 -19.2981C214.932 -19.587 216.658 -19.5552 216.258 -20.0788C215.515 -21.04 214 -19.8775 213.469 -21.2595C213.373 -21.5121 215.404 -22.2771 215.527 -22.1953C215.525 -22.1949 215.523 -22.1945 215.521 -22.1941ZM278.377 75.9093C278.347 75.9271 278.392 76.5079 278.425 76.5174C279.218 76.7279 279.129 75.5669 278.377 75.9093ZM252.444 128.266C252.424 128.259 252.332 128.326 252.209 128.431C251.903 128.688 251.387 129.185 251.401 129.235C251.663 130.138 252.619 129.644 252.853 129.058C252.977 128.753 252.904 128.43 252.444 128.266ZM272.187 38.7214C271.217 38.5222 270.79 37.9186 271.391 37.018C271.646 37.5918 271.934 38.1436 272.187 38.7214Z" fill="#8800FF"/>
</g>
<defs>
<clipPath id="clip0_13_2">
<rect width="300" height="400" fill="white"/>
</clipPath>
</defs>
</svg>
